<svg id="Calque_1" data-name="Calque 1" xmlns="http://www.w3.org/2000/svg" viewBox="0 0 370.94 286.02"><defs><style>.cls-1{fill:none;stroke-width:6px;}.cls-1,.cls-2,.cls-4,.cls-5,.cls-6,.cls-7{stroke:#000;stroke-miterlimit:10;}.cls-2{fill:#f15a24;}.cls-3{fill:#fbb03b;}.cls-4{fill:#e74b17;}.cls-5{fill:#f4ce00;}.cls-6{fill:#f4b200;}</style></defs><path class="cls-1" d="M3,209v36.94q129.51,74.16,259,0V209"/><path class="cls-2" d="M225.53,173.2c17.39,30.12,22.37,58.14,0,81.56-57.12,21.81-119.95,18.75-186.38,0-23.24-23.42-18.07-51.44,0-81.56l39.54-31.7,32,25.65,25.24,20.23,56.78-45.51Z"/><path class="cls-3" d="M197.05,188.86c11.93,20.66,15.34,39.89,0,55.95-39.19,15-82.3,12.86-127.87,0-15.94-16.06-12.4-35.29,0-55.95l27.13-21.75,22,17.6,17.32,13.88,38.95-31.22Z"/><polygon class="cls-4" points="161.17 167.15 132.05 142.07 110.69 167.15 135.93 187.38 161.17 167.15"/><path class="cls-5" d="M168,139.76,195.15,100l37,39.8q32.37-61.66,0-123.35c-24.59,74.62-54.14,89.87-92.49,0C108.37,93,76,104.3,41.9,16.41Q6,78.09,41.9,139.76L69.07,100l37.05,39.8,30-41.1Z"/><circle class="cls-6" cx="41.89" cy="16.48" r="15.98"/><circle class="cls-6" cx="139.56" cy="16.48" r="15.98"/><circle class="cls-6" cx="230.12" cy="16.48" r="15.98"/><rect class="cls-7" x="262.02" y="223.78" width="108.43" height="12.36"/></svg>